<?xml version="1.0" encoding="utf-8"?>
<!-- Generator: Adobe Illustrator 20.1.0, SVG Export Plug-In . SVG Version: 6.00 Build 0)  -->
<svg version="1.1" id="Layer_1" xmlns="http://www.w3.org/2000/svg" xmlns:xlink="http://www.w3.org/1999/xlink" x="0px" y="0px"
	 viewBox="0 0 682 694" style="enable-background:new 0 0 682 694;" xml:space="preserve">
<style type="text/css">
	.st0{fill:#030303;}
</style>
<g>
	<g>
		<path class="st0" d="M677.9,321.1c3.6-3.6,3.6-9.5,0-13.2l0,0L372.8,2.7l0,0v0l0,0c-1.7-1.7-4-2.7-6.6-2.7c-4.9,0-8.9,3.8-9.2,8.7
			v116.5l0.1,0.2c0,6.7,2.5,13.4,7.3,18.7l171.5,171.5l0.2,0.1c5.1,5.1,12.1,8.2,19.9,8.2h115.5v-0.1l0,0v0
			C673.7,323.8,676.1,322.9,677.9,321.1z"/>
		<path class="st0" d="M509.7,308.1L204,2.4c-1.6-1.5-3.8-2.4-6.1-2.4c-5.1,0-9.3,4.2-9.3,9.3h0v134.2l0.1,0.2c0,7,2.6,14,7.8,19.4
			l152.8,152.8c5.1,4.9,11.9,7.9,19.5,7.9H503v-0.1v0c2.4,0,4.8-0.9,6.6-2.7C513.1,317.5,513.1,311.8,509.7,308.1z"/>
		<path class="st0" d="M322.5,308.1L322.5,308.1l-134-134.1v0.1L17.2,2.7l0,0C15.5,1,13.1,0,10.6,0C5.4,0,1.3,4.2,1.3,9.3v295.8
			c0,10.3,8.3,18.6,18.5,18.7h168.7h128c2.2-0.2,4.3-1,6-2.6C326.1,317.6,326.1,311.7,322.5,308.1z"/>
	</g>
	<g>
		<path class="st0" d="M0,361.8h31.4l34.8,56l34.8-56h31.4v132.5h-29v-86.5l-37.3,56.6h-0.8l-36.9-56v86H0V361.8z"/>
		<path class="st0" d="M164.3,361.8h100v25.9h-71v26.9h62.5v25.9h-62.5v27.8h71.9v25.9H164.3V361.8z"/>
		<path class="st0" d="M291.2,361.8h60.6c16.8,0,29.9,4.7,38.6,13.4c7.4,7.4,11.4,17.8,11.4,30.3v0.4c0,21.4-11.5,34.8-28.4,41.1
			l32.4,47.3h-34.1l-28.4-42.4h-22.9v42.4h-29.2V361.8z M349.9,426.1c14.2,0,22.3-7.6,22.3-18.7V407c0-12.5-8.7-18.9-22.9-18.9h-29
			v38.1H349.9z"/>
		<path class="st0" d="M422.2,428.4V428c0-37.7,28.4-68.5,69.1-68.5c25,0,39.9,8.3,52.2,20.5L525,401.3c-10.2-9.3-20.6-15-33.9-15
			c-22.3,0-38.4,18.6-38.4,41.3v0.4c0,22.7,15.7,41.7,38.4,41.7c15.1,0,24.4-6.1,34.8-15.5l18.5,18.7
			c-13.6,14.6-28.8,23.7-54.3,23.7C451.2,496.6,422.2,466.5,422.2,428.4z"/>
		<path class="st0" d="M567.8,361.8H597v52.4h53.8v-52.4h29.2v132.5h-29.2v-53.2H597v53.2h-29.2V361.8z"/>
		<path class="st0" d="M14.8,568.6H0v-9h14.8v-10c0-11.6,3.2-20.8,9-26.6c5.2-5.2,12.4-8,21.4-8c6.2,0,10.6,0.8,15.2,2.4v9.2
			c-5.8-1.8-10-2.6-15.2-2.6c-14,0-20.6,8.4-20.6,25.8v9.8h35.6v9H24.6v92.9h-9.8V568.6z"/>
		<path class="st0" d="M69.7,631.9v-0.4c0-21.2,18.2-33.2,44.5-33.2c14.2,0,24,1.8,33.8,4.4v-4.4c0-20.6-12.6-31.2-33.5-31.2
			c-12.4,0-22.6,3.4-32,8.2l-3.6-8.6c11.2-5.2,22.2-8.8,36.1-8.8c13.8,0,24.8,3.8,32.2,11.2c6.8,6.8,10.4,16.2,10.4,28.8v63.5H148
			v-17c-7,9.8-19.6,19.4-39,19.4C90.1,663.8,69.7,653,69.7,631.9z M148.2,623.3v-11.6c-8.6-2.2-20-4.6-34.6-4.6
			c-21.6,0-33.6,9.6-33.6,23.8v0.4c0,14.8,14,23.4,29.6,23.4C130.4,654.7,148.2,641.9,148.2,623.3z"/>
		<path class="st0" d="M185.8,610.9v-0.4c0-28.6,22.8-53.3,51.9-53.3c19.2,0,31.2,8.8,40.7,18.8l-7,7.2c-8.8-9-18.8-16.8-33.9-16.8
			c-23.2,0-41.1,19.4-41.1,43.7v0.4c0,24.6,18.6,44.2,41.9,44.2c14.4,0,25.6-7.4,34.2-17l6.8,6c-10.4,11.8-22.8,20.2-41.5,20.2
			C208.4,663.8,185.8,639.5,185.8,610.9z"/>
		<path class="st0" d="M312.2,635.3v-66.7h-14.8v-9h14.8V527h9.8v32.6h35.8v9H322v65.7c0,14.6,8.6,19.8,20.4,19.8c5,0,9.2-1,15-3.6
			v9.2c-5.2,2.4-10.2,3.6-16.6,3.6C325,663.2,312.2,654.7,312.2,635.3z"/>
		<path class="st0" d="M376.8,610.9v-0.4c0-28.6,22.2-53.3,52.5-53.3c30.2,0,52.1,24.4,52.1,52.9v0.4c0,28.6-22.2,53.3-52.5,53.3
			C398.7,663.8,376.8,639.5,376.8,610.9z M470.8,610.9v-0.4c0-24.6-18.4-44.1-42-44.1c-24.2,0-41.5,19.8-41.5,43.7v0.4
			c0,24.6,18.4,44.2,41.9,44.2C453.5,654.7,470.8,634.9,470.8,610.9z"/>
		<path class="st0" d="M511.6,559.6h9.8v29c8-18.2,25-31.4,45.1-30.6v10.8h-1c-23.6,0-44.1,17.8-44.1,50.9v41.7h-9.8V559.6z"/>
		<path class="st0" d="M671.2,559.6H682L637.8,665c-9,21.4-19.4,29-33.9,29c-7.8,0-13.4-1.4-20.2-4.4l3.4-8.6
			c5.4,2.6,9.8,3.8,17.4,3.8c10.6,0,17.6-6.2,25.2-24l-48.9-101.3h11.4l42.3,91.1L671.2,559.6z"/>
	</g>
</g>
</svg>
